<?xml version="1.0" encoding="UTF-8" standalone="no"?>
<!-- Created with Inkscape (http://www.inkscape.org/) -->

<svg
   xmlns:dc="http://purl.org/dc/elements/1.1/"
   xmlns:cc="http://creativecommons.org/ns#"
   xmlns:rdf="http://www.w3.org/1999/02/22-rdf-syntax-ns#"
   xmlns:svg="http://www.w3.org/2000/svg"
   xmlns="http://www.w3.org/2000/svg"
   xmlns:sodipodi="http://sodipodi.sourceforge.net/DTD/sodipodi-0.dtd"
   xmlns:inkscape="http://www.inkscape.org/namespaces/inkscape"
   width="362.26001"
   height="284.48193"
   id="svg3028"
   version="1.1"
   inkscape:version="0.48.4 r9939"
   sodipodi:docname="tslogo.svg"
   inkscape:export-filename="/home/lena/Dropbox/mumtemplate/tslogo.png"
   inkscape:export-xdpi="34.200001"
   inkscape:export-ydpi="34.200001">
  <defs
     id="defs3030" />
  <sodipodi:namedview
     id="base"
     pagecolor="#ffffff"
     bordercolor="#666666"
     borderopacity="1.0"
     inkscape:pageopacity="0.0"
     inkscape:pageshadow="2"
     inkscape:zoom="1.4"
     inkscape:cx="230.39405"
     inkscape:cy="133.63325"
     inkscape:document-units="px"
     inkscape:current-layer="layer1"
     showgrid="false"
     fit-margin-top="12"
     fit-margin-right="12"
     fit-margin-bottom="12"
     fit-margin-left="12"
     inkscape:window-width="1225"
     inkscape:window-height="776"
     inkscape:window-x="55"
     inkscape:window-y="24"
     inkscape:window-maximized="1" />
  <metadata
     id="metadata3033">
    <rdf:RDF>
      <cc:Work
         rdf:about="">
        <dc:format>image/svg+xml</dc:format>
        <dc:type
           rdf:resource="http://purl.org/dc/dcmitype/StillImage" />
        <dc:title></dc:title>
      </cc:Work>
    </rdf:RDF>
  </metadata>
  <g
     inkscape:groupmode="layer"
     id="layer2"
     inkscape:label="Layer"
     transform="translate(27.173327,71.651967)" />
  <g
     inkscape:label="Layer 1"
     inkscape:groupmode="layer"
     id="layer1"
     transform="translate(-360.29543,-357.27197)">
    <g
       id="g2998"
       inkscape:export-xdpi="34.200001"
       inkscape:export-ydpi="34.200001">
      <path
         id="rect3047"
         d="m -15,26.073566 338.08167,0 0,174.756394 -338.08167,0 z"
         style="fill:#eef4d7;fill-opacity:1;stroke:none"
         transform="translate(387.46875,428.92395)"
         inkscape:connector-curvature="0" />
      <path
         id="path3045"
         d="m 303.55084,64.459366 c 0,47.420804 -67.83911,85.862964 -151.52289,85.862964 -83.683776,0 -151.52288408,-38.44216 -151.52288408,-85.862964 0,-47.420808 67.83910808,-85.862969 151.52288408,-85.862969 83.68378,0 151.52289,38.442161 151.52289,85.862969 z"
         style="fill:#e2e3db;fill-opacity:1;stroke:none"
         transform="matrix(1.1154941,0,0,1.037435,371.73203,391.47682)"
         inkscape:connector-curvature="0" />
      <g
         id="flowRoot3036"
         style="font-size:144px;font-style:normal;font-variant:normal;font-weight:bold;font-stretch:normal;text-align:center;line-height:125%;letter-spacing:0px;word-spacing:0px;text-anchor:middle;fill:#000000;fill-opacity:1;stroke:none;font-family:PerryGothic;-inkscape-font-specification:PerryGothic Bold"
         transform="translate(-3.0304576,314.83369)">
        <path
           id="path2991"
           d="m 544.18875,140.72025 c -1.4e-4,0.38414 -4.22414,4.84813 -12.672,13.392 -4.60813,4.60812 -7.77612,8.20811 -9.504,10.8 -4.32012,6.33611 -8.25611,13.2001 -11.808,20.592 -1.34411,2.88009 -3.02411,4.32009 -5.04,4.32 -0.9601,9e-5 -2.0161,-0.43191 -3.168,-1.296 -1.0561,-0.95991 -1.5841,-1.87191 -1.584,-2.736 -1e-4,-0.19191 1.4399,-3.26391 4.32,-9.216 2.97589,-5.95189 4.46389,-9.16789 4.464,-9.648 -5.8561,-0.28789 -10.2721,-0.52789 -13.248,-0.72 -8.73609,-0.57589 -13.72808,-1.00789 -14.976,-1.296 -1.24808,-0.28789 -4.08008,-1.10389 -8.496,-2.448 -4.41607,-1.43988 -7.00807,-2.15988 -7.776,-2.16 -3.74406,1.2e-4 -9.12006,3.88811 -16.128,11.664 -8.06404,9.0241 -12.09604,17.90409 -12.096,26.64 l 0,10.8 c -4e-5,5.66406 1.87196,11.71206 5.616,18.144 4.51195,7.68004 10.55995,13.82404 18.144,18.432 9.31193,5.66403 20.01592,8.49602 32.112,8.496 6.3359,2e-5 12.43189,-2.01598 18.288,-6.048 5.85588,-4.03197 9.40788,-6.04797 10.656,-6.048 1.72788,3e-5 2.83188,0.48003 3.312,1.44 0.47987,0.96003 0.71987,2.01603 0.72,3.168 -1.3e-4,4.51203 -4.51212,10.36802 -13.536,17.568 -10.0801,8.064 -19.92009,12.096 -29.52,12.096 l -12.816,0 c -11.23206,0 -22.99205,-5.42399 -35.28,-16.272 -12.76802,-11.32797 -19.15202,-22.70396 -19.152,-34.128 l 0,-15.552 c 0.28798,-2.39993 0.57598,-4.79993 0.864,-7.2 1.53598,-6.14392 4.55998,-12.52791 9.072,-19.152 6.33597,-9.2159 15.11996,-18.14389 26.352,-26.784 -4.32005,-1.15188 -8.20804,-2.11188 -11.664,-2.88 -5.66403,-1.24788 -9.84003,-1.87188 -12.528,-1.872 -7.77602,1.2e-4 -13.39201,3.84012 -16.848,11.52 -3.45601,7.5841 -5.71201,11.3761 -6.768,11.376 -1.728,10e-5 -2.832,-0.4799 -3.312,-1.44 -0.48,-1.0559 -0.72,-2.5919 -0.72,-4.608 0,-8.44788 4.512,-16.70388 13.536,-24.768 9.11998,-8.15986 18.28797,-12.23986 27.504,-12.24 l 18.144,0 54.576,11.376 c 8.25588,-2.20787 13.91987,-3.74386 16.992,-4.608 3.07187,-0.95986 5.95186,-1.87186 8.64,-2.736 1.05586,1.4e-4 2.20786,0.43214 3.456,1.296 1.24786,0.76814 1.87186,1.68014 1.872,2.736"
           inkscape:connector-curvature="0" />
        <path
           id="path2993"
           d="m 674.187,224.38425 c -1.3e-4,6.14405 -2.06413,13.00804 -6.192,20.592 -4.80012,8.92802 -11.08811,16.12802 -18.864,21.6 -9.50409,6.72 -20.16008,10.08 -31.968,10.08 l -13.968,0 c -12.57605,0 -23.56803,-2.736 -32.976,-8.208 -9.31202,-5.47199 -16.65601,-13.24798 -22.032,-23.328 -0.768,-0.86397 -1.296,-1.58397 -1.584,-2.16 -1.152,-1.82396 -1.728,-3.31196 -1.728,-4.464 l 0,-6.768 c 0,-4.89595 1.968,-9.11995 5.904,-12.672 3.93599,-3.55194 8.20799,-5.32794 12.816,-5.328 3.83998,6e-5 7.34397,1.00806 10.512,3.024 3.26397,1.92006 4.89597,4.27206 4.896,7.056 l 0,2.016 c -5.08803,5e-5 -8.59203,0.81605 -10.512,2.448 -1.92002,1.63205 -2.88002,4.60804 -2.88,8.928 -2e-5,7.48803 3.59998,14.30403 10.8,20.448 8.15996,6.91201 18.38395,10.36801 30.672,10.368 11.13593,10e-6 20.63992,-3.64799 28.512,-10.944 7.8719,-7.39197 11.8079,-15.59996 11.808,-24.624 -10e-5,-8.44795 -2.9761,-15.79194 -8.928,-22.032 -5.85609,-6.33593 -12.48008,-9.50392 -19.872,-9.504 -5.76007,8e-5 -10.80006,1.44007 -15.12,4.32 -4.22405,2.78407 -6.33605,6.72006 -6.336,11.808 l -2.016,0 c -11.90404,6e-5 -22.51203,-3.83994 -31.824,-11.52 -10.08001,-8.25592 -15.12,-18.47991 -15.12,-30.672 0,-11.71189 5.08799,-21.88788 15.264,-30.528 9.11997,-7.77586 18.52796,-11.66386 28.224,-11.664 7.96795,1.4e-4 16.60794,1.82414 25.92,5.472 9.88792,4.03213 19.82391,8.01613 29.808,11.952 3.83989,1.3e-4 6.81589,-1.43987 8.928,-4.32 2.20789,-2.97587 3.88788,-4.46386 5.04,-4.464 0.47988,1.4e-4 1.15188,0.38413 2.016,1.152 0.86388,0.76813 1.29588,1.72813 1.296,2.88 -1.2e-4,6.52812 -3.50412,13.29612 -10.512,20.304 -5.2801,5.28011 -11.3761,7.9201 -18.288,7.92 -5.76009,1e-4 -12.28808,-2.01589 -19.584,-6.048 -7.20006,-4.12789 -14.11206,-8.20788 -20.736,-12.24 -7.48804,-4.31987 -13.44004,-6.47987 -17.856,-6.48 -4.60803,1.3e-4 -8.68802,1.68013 -12.24,5.04 -3.45602,3.26412 -5.18402,6.72012 -5.184,10.368 -2e-5,5.56811 3.55198,11.3281 10.656,17.28 7.58397,6.33609 15.40796,9.50409 23.472,9.504 l 18.72,0 c 1.53593,-2.30391 4.41593,-4.55991 8.64,-6.768 5.08792,-2.6879 10.03191,-4.0319 14.832,-4.032 7.9679,1e-4 15.16789,2.73609 21.6,8.208 4.79988,4.03208 8.83188,9.45608 12.096,16.272 2.59187,5.28007 3.88787,9.16806 3.888,11.664 l 0,8.064"
           inkscape:connector-curvature="0" />
      </g>
    </g>
  </g>
</svg>
