<?xml version="1.0" encoding="UTF-8" standalone="no"?>
<!-- Created with Inkscape (http://www.inkscape.org/) -->

<svg
   xmlns:dc="http://purl.org/dc/elements/1.1/"
   xmlns:cc="http://creativecommons.org/ns#"
   xmlns:rdf="http://www.w3.org/1999/02/22-rdf-syntax-ns#"
   xmlns:svg="http://www.w3.org/2000/svg"
   xmlns="http://www.w3.org/2000/svg"
   xmlns:sodipodi="http://sodipodi.sourceforge.net/DTD/sodipodi-0.dtd"
   xmlns:inkscape="http://www.inkscape.org/namespaces/inkscape"
   width="553.46997"
   height="140.496"
   id="svg2"
   version="1.1"
   inkscape:version="0.48.4 r9939"
   sodipodi:docname="timespotter.svg">
  <defs
     id="defs4" />
  <sodipodi:namedview
     id="base"
     pagecolor="#ffffff"
     bordercolor="#666666"
     borderopacity="1.0"
     inkscape:pageopacity="0.0"
     inkscape:pageshadow="2"
     inkscape:zoom="0.35"
     inkscape:cx="130.3425"
     inkscape:cy="4.340355"
     inkscape:document-units="px"
     inkscape:current-layer="layer1"
     showgrid="false"
     fit-margin-top="3"
     fit-margin-right="3"
     fit-margin-bottom="3"
     fit-margin-left="3"
     inkscape:window-width="1225"
     inkscape:window-height="776"
     inkscape:window-x="55"
     inkscape:window-y="24"
     inkscape:window-maximized="1" />
  <metadata
     id="metadata7">
    <rdf:RDF>
      <cc:Work
         rdf:about="">
        <dc:format>image/svg+xml</dc:format>
        <dc:type
           rdf:resource="http://purl.org/dc/dcmitype/StillImage" />
        <dc:title />
      </cc:Work>
    </rdf:RDF>
  </metadata>
  <g
     inkscape:label="Layer 1"
     inkscape:groupmode="layer"
     id="layer1"
     transform="translate(-244.6575,-396.20654)">
    <text
       xml:space="preserve"
       style="font-size:144px;font-style:normal;font-variant:normal;font-weight:500;font-stretch:normal;text-align:center;line-height:125%;letter-spacing:0px;word-spacing:0px;text-anchor:middle;fill:#000000;fill-opacity:1;stroke:none;font-family:Xenippa;-inkscape-font-specification:Xenippa Medium"
       x="71.428574"
       y="143.79076"
       id="text2985"
       sodipodi:linespacing="125%"><tspan
         sodipodi:role="line"
         id="tspan2987"
         x="71.428574"
         y="143.79076" /></text>
    <flowRoot
       xml:space="preserve"
       id="flowRoot2993"
       style="font-size:144px;font-style:normal;font-variant:normal;font-weight:500;font-stretch:normal;text-align:center;line-height:125%;letter-spacing:0px;word-spacing:0px;text-anchor:middle;fill:#000000;fill-opacity:1;stroke:none;font-family:Xenippa;-inkscape-font-specification:Xenippa Medium"
       transform="translate(0,308.2677)"><flowRegion
         id="flowRegion2995"><rect
           id="rect2997"
           width="14.285714"
           height="237.14285"
           x="60"
           y="84.094482" /></flowRegion><flowPara
         id="flowPara2999" /></flowRoot>    <g
       transform="translate(0,308.2677)"
       style="font-size:144px;font-style:normal;font-variant:normal;font-weight:500;font-stretch:normal;text-align:center;line-height:125%;letter-spacing:0px;word-spacing:0px;text-anchor:middle;fill:#374837;fill-opacity:1;stroke:none;font-family:Xenippa;-inkscape-font-specification:Xenippa Medium"
       id="flowRoot3001">
      <path
         d="m 273.8655,90.938837 c 1.53597,1.02e-4 3.21597,0.0481 5.04,0.144 1.82397,0.0961 3.64796,0.288101 5.472,0.576 1.91996,0.192101 3.79196,0.4801 5.616,0.864 1.82396,0.3841 3.45595,0.864099 4.896,1.44 1.43995,0.576098 3.11995,1.152098 5.04,1.728 1.91995,0.576096 3.88794,1.104096 5.904,1.584 2.11194,0.480095 4.17594,0.912094 6.192,1.296 2.01593,0.288094 3.74393,0.432094 5.184,0.432 1.53593,9.4e-5 3.07193,-0.191906 4.608,-0.576 1.63192,-0.383905 3.07192,-0.575905 4.32,-0.576 0.28792,9.5e-5 0.47992,0.144095 0.576,0.432 0.19192,0.288094 0.28792,0.528094 0.288,0.72 -8e-5,0.192093 -0.0481,0.336093 -0.144,0.432 -8e-5,0.09609 -8e-5,0.192093 0,0.288 -0.76808,1.152093 -1.72808,2.112093 -2.88,2.880003 -0.86408,0.48009 -1.63208,1.15209 -2.304,2.016 -0.57607,0.76808 -1.24807,1.39208 -2.016,1.872 -1.63207,1.05608 -3.26407,1.92008 -4.896,2.592 -1.63207,0.57608 -3.40806,0.86408 -5.328,0.864 -1.05606,8e-5 -2.35206,8e-5 -3.888,0 -1.53606,-0.0959 -3.07206,-0.23992 -4.608,-0.432 -1.53605,-0.28792 -3.02405,-0.57592 -4.464,-0.864 -1.44005,-0.38392 -2.59205,-0.86392 -3.456,-1.44 -0.28805,0.48008 -0.57605,0.96008 -0.864,1.44 -0.19205,0.38408 -0.48004,0.76808 -0.864,1.152 -0.38404,1.53608 -0.76804,3.02408 -1.152,4.464 -0.28804,1.44007 -0.43204,2.97607 -0.432,4.608 -4e-5,2.49607 0.43196,5.23207 1.296,8.208 0.86396,2.88006 1.91995,5.37606 3.168,7.488 0.19195,1.34405 0.57595,2.64005 1.152,3.888 0.67195,1.24805 1.00795,2.59205 1.008,4.032 -5e-5,1.15205 0.14395,2.40004 0.432,3.744 0.28795,1.34404 0.43195,2.68804 0.432,4.032 -5e-5,2.40004 -0.62405,5.04003 -1.872,7.92 -1.15205,2.78403 -2.40005,5.13603 -3.744,7.056 -0.48004,0.76802 -1.00804,1.48802 -1.584,2.16 -0.48004,0.57602 -0.91204,1.29602 -1.296,2.16 -0.48004,0.48002 -0.91204,0.91202 -1.296,1.296 -0.28804,0.38402 -0.43204,0.91202 -0.432,1.584 0.95996,0.67202 2.15996,1.39202 3.6,2.16 1.53595,0.76801 2.59195,1.58401 3.168,2.448 0.47995,0.28801 1.00795,0.62401 1.584,1.008 0.67195,0.28801 1.00795,0.76801 1.008,1.44 l 0,0.432 c -0.28805,0.48001 -0.81605,1.24801 -1.584,2.304 -0.76805,0.96001 -1.63205,1.96801 -2.592,3.024 -0.86404,1.056 -1.72804,2.016 -2.592,2.88 -0.86404,0.768 -1.48804,1.152 -1.872,1.152 -0.19204,0.096 -0.48004,0.144 -0.864,0.144 -0.38404,0 -1.20004,-0.384 -2.448,-1.152 -1.15204,-0.768 -2.40004,-1.632 -3.744,-2.592 -1.34403,-0.96 -2.64003,-1.87199 -3.888,-2.736 -1.24803,-0.95999 -2.06403,-1.58399 -2.448,-1.872 l 0,-1.44 c 0.86397,-1.72799 1.87197,-3.31199 3.024,-4.752 1.24797,-1.53598 2.54397,-2.97598 3.888,-4.32 0.47997,-0.19198 0.95996,-0.33598 1.44,-0.432 0.47996,-0.096 0.81596,-0.43198 1.008,-1.008 1.05596,-1.53598 1.77596,-3.21598 2.16,-5.04 0.38396,-1.82397 0.57596,-3.64797 0.576,-5.472 -4e-5,-2.59197 -0.33604,-5.13596 -1.008,-7.632 -0.67204,-2.49596 -1.44004,-4.99196 -2.304,-7.488 -0.86404,-2.49595 -1.63203,-4.99195 -2.304,-7.488 -0.67203,-2.49594 -1.00803,-5.03994 -1.008,-7.632 -3e-5,-1.24794 0.096,-2.39994 0.288,-3.456 0.28797,-1.15193 0.52797,-2.35193 0.72,-3.6 0.19197,-1.15193 0.71997,-2.49593 1.584,-4.032 0.86396,-1.53593 1.77596,-3.02392 2.736,-4.464 1.05596,-1.53592 1.96796,-2.87992 2.736,-4.032 0.86396,-1.15192 1.29596,-1.91992 1.296,-2.304 -0.48004,-0.67192 -1.72804,-1.24792 -3.744,-1.728 -1.92004,-0.47991 -4.08003,-0.86391 -6.48,-1.152 -2.30403,-0.38391 -4.56003,-0.62391 -6.768,-0.72 -2.20802,-0.19191 -3.74402,-0.28791 -4.608,-0.288 -0.48002,9e-5 -0.91202,-0.0479 -1.296,-0.144 -0.38402,-0.19191 -0.81602,-0.28791 -1.296,-0.288 -0.86402,9e-5 -2.06402,0.19209 -3.6,0.576 -1.53601,0.38409 -3.12001,0.86409 -4.752,1.44 -1.53601,0.57608 -2.97601,1.24808 -4.32,2.016 -1.344,0.67208 -2.256,1.39208 -2.736,2.16 l -1.872,0 c 0.576,-1.05592 1.488,-2.39992 2.736,-4.032 1.248,-1.63191 2.59199,-3.21591 4.032,-4.752003 1.53599,-1.631905 3.07199,-3.023904 4.608,-4.176 1.63199,-1.247902 3.02398,-1.967901 4.176,-2.16 0.28798,-0.2879 0.91198,-0.5279 1.872,-0.72 1.05598,-0.2879 2.11198,-0.527899 3.168,-0.72 1.15198,-0.287899 2.25598,-0.479899 3.312,-0.576 1.05597,-0.191898 1.82397,-0.287898 2.304,-0.288"
         style="font-weight:normal;font-family:Wernicke Schwabacher;-inkscape-font-specification:Wernicke Schwabacher;fill:#374837"
         id="path2993" />
      <path
         d="m 327.67875,103.89884 c 0.096,9e-5 0.19199,0.0481 0.288,0.144 0.19199,0.0961 0.33599,0.14409 0.432,0.144 0.76799,0.67208 1.63198,1.72808 2.592,3.168 0.95998,1.34408 1.43998,2.54408 1.44,3.6 -2e-5,1.44008 -0.28802,2.78408 -0.864,4.032 -0.57602,1.15207 -1.34402,2.20807 -2.304,3.168 -0.86401,0.96007 -1.82401,1.92007 -2.88,2.88 -1.05601,0.86407 -2.06401,1.72807 -3.024,2.592 -0.48001,0.48007 -0.96001,0.96007 -1.44,1.44 -0.48001,0.48006 -1.10401,0.72006 -1.872,0.72 l -0.288,0 c 0.096,-0.0959 0.23999,-0.43194 0.432,-1.008 0.28799,-0.57593 0.52799,-1.15193 0.72,-1.728 0.28799,-0.67193 0.52799,-1.29593 0.72,-1.872 0.19199,-0.57593 0.28799,-0.95993 0.288,-1.152 -0.19201,-0.86393 -0.48001,-1.77593 -0.864,-2.736 -0.28801,-0.95993 -0.81601,-1.72793 -1.584,-2.304 -0.384,-0.47992 -0.576,-1.15192 -0.576,-2.016 0,-0.57592 0.336,-1.34392 1.008,-2.304 0.76799,-1.05592 1.63199,-2.06392 2.592,-3.024 0.95999,-1.05592 1.91999,-1.91992 2.88,-2.592 1.05599,-0.76791 1.82399,-1.15191 2.304,-1.152 m -3.888,29.664 c 0.76799,6e-5 1.39199,0.38406 1.872,1.152 0.57599,0.67205 1.00799,1.53605 1.296,2.592 0.38399,0.96005 0.62399,1.96805 0.72,3.024 0.19199,0.96005 0.28799,1.72805 0.288,2.304 -10e-6,0.38405 -0.048,0.76805 -0.144,1.152 -0.096,0.28805 -0.14401,0.62405 -0.144,1.008 -10e-6,0.48004 -10e-6,0.91204 0,1.296 0.096,0.38404 0.14399,0.81604 0.144,1.296 -10e-6,0.38404 -10e-6,1.24804 0,2.592 -10e-6,1.24804 -10e-6,2.59204 0,4.032 -10e-6,1.44003 -10e-6,2.78403 0,4.032 -10e-6,1.15203 -0.048,1.77603 -0.144,1.872 0.19199,1.05603 0.23999,2.11203 0.144,3.168 -10e-6,0.96003 0.096,1.96802 0.288,3.024 -0.19201,1.05602 -0.24001,2.16002 -0.144,3.312 0.096,1.05602 0.14399,2.11202 0.144,3.168 -10e-6,0.86402 -0.096,1.72802 -0.288,2.592 -0.096,0.86401 -0.14401,1.72801 -0.144,2.592 -10e-6,1.15201 0.096,2.01601 0.288,2.592 0.19199,0.48001 0.43199,0.91201 0.72,1.296 0.28799,0.28801 0.62399,0.62401 1.008,1.008 0.38398,0.28801 0.81598,0.76801 1.296,1.44 l 0,0.72 c -1.44001,1.344 -2.92801,2.688 -4.464,4.032 -1.44001,1.248 -2.83201,2.544 -4.176,3.888 l -1.872,0 c -0.38401,-0.384 -0.768,-0.72 -1.152,-1.008 -0.384,-0.384 -0.816,-0.672 -1.296,-0.864 -0.096,-0.096 -0.192,-0.384 -0.288,-0.864 0,-0.576 -0.048,-1.152 -0.144,-1.728 0,-0.672 -0.048,-1.248 -0.144,-1.728 0,-0.576 0,-1.008 0,-1.296 0,-1.05599 0.096,-2.06399 0.288,-3.024 0.192,-1.05599 0.288,-2.11199 0.288,-3.168 0,-2.30399 -0.096,-4.60798 -0.288,-6.912 -0.192,-2.30398 -0.288,-4.60798 -0.288,-6.912 l 0,-7.488 -0.144,-9.36 c 0,-1.34396 -0.336,-2.63996 -1.008,-3.888 -0.576,-1.24795 -0.864,-2.01595 -0.864,-2.304 0,-0.38395 0.384,-1.00795 1.152,-1.872 0.768,-0.95995 1.632,-1.91995 2.592,-2.88 1.05599,-1.05595 2.01599,-1.96795 2.88,-2.736 0.95999,-0.76794 1.53599,-1.15194 1.728,-1.152"
         style="font-weight:normal;font-family:Wernicke Schwabacher;-inkscape-font-specification:Wernicke Schwabacher;fill:#374837"
         id="path2995" />
      <path
         d="m 365.82525,132.84284 c 1.43997,6e-5 2.92796,0.43206 4.464,1.296 1.63196,0.76805 2.44796,2.01605 2.448,3.744 -4e-5,0.67205 -4e-5,1.34405 0,2.016 -4e-5,0.57605 0.096,1.20005 0.288,1.872 0.28796,-0.19195 0.47996,-0.33595 0.576,-0.432 0.19196,-0.096 0.38396,-0.28795 0.576,-0.576 1.05596,-1.34395 2.25596,-2.39995 3.6,-3.168 1.43995,-0.76795 2.63995,-1.77595 3.6,-3.024 0.57595,-0.19194 1.15195,-0.33594 1.728,-0.432 0.57595,-0.19194 1.19995,-0.28794 1.872,-0.288 1.91995,6e-5 4.12794,0.28806 6.624,0.864 2.59194,0.57605 4.79994,1.24805 6.624,2.016 0.28793,0.28805 0.43193,0.67205 0.432,1.152 -7e-5,0.76805 -0.24007,1.48805 -0.72,2.16 -0.76806,1.05605 -1.48806,1.92005 -2.16,2.592 -0.67206,0.67205 -1.29606,1.58405 -1.872,2.736 -0.57606,1.15204 -1.20006,2.54404 -1.872,4.176 -0.57606,1.53604 -0.86406,2.92804 -0.864,4.176 -6e-5,0.96003 -6e-5,1.87203 0,2.736 0.0959,0.86403 0.14394,1.72803 0.144,2.592 -6e-5,0.86403 0.14394,1.68003 0.432,2.448 0.38394,0.76803 0.62394,1.53603 0.72,2.304 0.0959,1.05602 0.33594,2.25602 0.72,3.6 0.47994,1.34402 1.00794,2.68802 1.584,4.032 0.57594,1.34402 1.19994,2.64002 1.872,3.888 0.67194,1.24801 1.34394,2.30401 2.016,3.168 0.28793,0.48001 0.76793,1.05601 1.44,1.728 0.67193,0.57601 1.00793,1.10401 1.008,1.584 l 0,2.448 c -0.28807,0.384 -0.86407,1.008 -1.728,1.872 -0.86407,0.768 -1.77606,1.584 -2.736,2.448 -0.86406,0.864 -1.72806,1.632 -2.592,2.304 -0.86406,0.672 -1.48806,1.008 -1.872,1.008 -1.34406,-0.48 -2.64006,-1.728 -3.888,-3.744 -1.24805,-2.016 -2.35205,-4.27199 -3.312,-6.768 -0.96005,-2.49599 -1.77605,-4.94399 -2.448,-7.344 -0.57605,-2.39998 -0.86405,-4.27198 -0.864,-5.616 l 0,-6.048 c -5e-5,-2.97597 0.57595,-5.56797 1.728,-7.776 1.15195,-2.20796 2.39995,-4.55996 3.744,-7.056 l 0,-0.288 c -0.57605,-0.28796 -1.29605,-0.57596 -2.16,-0.864 -0.86405,-0.28796 -1.82405,-0.52796 -2.88,-0.72 -0.96005,-0.28796 -1.92005,-0.47996 -2.88,-0.576 -0.86405,-0.19196 -1.58404,-0.28796 -2.16,-0.288 -1.53604,4e-5 -2.88004,0.43204 -4.032,1.296 l 0,10.512 c -4e-5,1.44003 -0.048,2.88003 -0.144,4.32 -0.096,1.34403 -0.14404,2.73603 -0.144,4.176 -4e-5,0.57602 -0.096,1.15202 -0.288,1.728 -0.096,0.57602 -0.14404,1.10402 -0.144,1.584 -4e-5,1.24802 0.048,2.44802 0.144,3.6 0.19196,1.15202 0.28796,2.35202 0.288,3.6 -4e-5,0.67201 -0.048,1.34401 -0.144,2.016 -0.096,0.57601 -0.14404,1.20001 -0.144,1.872 -4e-5,0.57601 -0.048,1.15201 -0.144,1.728 -0.096,0.48001 -0.096,1.00801 0,1.584 0.096,0.67201 -4e-5,1.20001 -0.288,1.584 -0.28804,0.384 -0.67204,0.816 -1.152,1.296 -0.57604,0.576 -1.10404,1.2 -1.584,1.872 -0.38404,0.672 -0.81604,1.344 -1.296,2.016 -0.38403,0.672 -0.91203,1.296 -1.584,1.872 -0.57603,0.48 -1.34403,0.864 -2.304,1.152 -0.76803,-0.192 -1.10403,-0.528 -1.008,-1.008 0.19197,-0.576 0.14397,-1.104 -0.144,-1.584 -0.19203,-1.44 -0.28803,-3.408 -0.288,-5.904 -3e-5,-2.49599 -3e-5,-4.51199 0,-6.048 -3e-5,-4.22398 0.048,-8.35198 0.144,-12.384 0.19197,-4.12797 0.28797,-8.30397 0.288,-12.528 -3e-5,-0.38396 -3e-5,-1.00796 0,-1.872 -3e-5,-0.95996 -0.048,-1.87196 -0.144,-2.736 -3e-5,-0.95996 -0.096,-1.82396 -0.288,-2.592 -0.096,-0.76796 -0.33603,-1.29596 -0.72,-1.584 -0.19203,-0.47995 -0.62403,-0.81595 -1.296,-1.008 -0.57603,-0.28795 -1.10403,-0.43195 -1.584,-0.432 -0.96002,5e-5 -1.82402,0.28805 -2.592,0.864 -0.67202,0.57605 -1.24802,1.24804 -1.728,2.016 0.19198,1.63204 0.57598,3.12004 1.152,4.464 0.57598,1.34404 0.86398,2.83204 0.864,4.464 -2e-5,2.11203 -0.62402,4.51203 -1.872,7.2 -1.15202,2.59203 -2.44802,5.08802 -3.888,7.488 -1.72802,2.78402 -3.60001,5.61601 -5.616,8.496 l 0,0.288 c 0.38399,0.28801 1.00799,0.57601 1.872,0.864 0.86399,0.28801 1.67998,0.62401 2.448,1.008 0.76798,0.38401 1.43998,0.81601 2.016,1.296 0.67198,0.38401 1.00798,0.86401 1.008,1.44 -2e-5,0.48001 -0.33602,1.24801 -1.008,2.304 -0.67202,1.056 -1.48802,2.112 -2.448,3.168 -0.96002,1.056 -1.92001,2.064 -2.88,3.024 -0.86401,0.864 -1.58401,1.392 -2.16,1.584 -1.63201,-0.48 -3.16801,-1.2 -4.608,-2.16 -1.344,-0.96 -2.832,-1.44 -4.464,-1.44 -0.384,0 -0.672,-0.144 -0.864,-0.432 -0.192,-0.288 -0.288,-0.576 -0.288,-0.864 0,-1.152 0.672,-2.496 2.016,-4.032 1.344,-1.63199 2.78399,-3.45599 4.32,-5.472 1.63199,-2.01599 3.11999,-4.31998 4.464,-6.912 1.34399,-2.59198 2.01599,-5.51998 2.016,-8.784 -10e-6,-1.24797 -0.24001,-2.54397 -0.72,-3.888 -0.38401,-1.43997 -0.91201,-2.83197 -1.584,-4.176 -0.67201,-1.34396 -1.44001,-2.63996 -2.304,-3.888 -0.76801,-1.24796 -1.53601,-2.35196 -2.304,-3.312 -0.28801,-0.096 -0.67201,-0.33596 -1.152,-0.72 -0.48,-0.38396 -0.96,-0.76796 -1.44,-1.152 -0.48,-0.47996 -0.912,-0.91196 -1.296,-1.296 -0.288,-0.47995 -0.432,-0.86395 -0.432,-1.152 0,-0.57595 0.144,-1.05595 0.432,-1.44 0.288,-0.47995 0.528,-0.95995 0.72,-1.44 1.056,-1.05595 1.91999,-2.15995 2.592,-3.312 0.67199,-1.15195 1.48799,-2.20795 2.448,-3.168 0.76799,-0.38394 1.34399,-0.57594 1.728,-0.576 0.57599,0.28806 1.19999,0.52806 1.872,0.72 0.67199,0.0961 1.15199,0.52806 1.44,1.296 1.63198,1.15205 2.83198,2.35205 3.6,3.6 0.76798,1.24805 1.72798,2.59205 2.88,4.032 0.86398,-0.57595 1.87198,-1.39195 3.024,-2.448 1.15198,-1.15195 2.30397,-2.25595 3.456,-3.312 1.15197,-1.15195 2.25597,-2.15995 3.312,-3.024 1.15197,-0.86394 2.06397,-1.29594 2.736,-1.296"
         style="font-weight:normal;font-family:Wernicke Schwabacher;-inkscape-font-specification:Wernicke Schwabacher;fill:#374837"
         id="path2997" />
      <path
         d="m 427.39425,133.99484 c 3.07197,6e-5 5.71197,0.91205 7.92,2.736 2.30396,1.72805 4.12796,3.84005 5.472,6.336 0.38396,0.57605 0.62396,1.20005 0.72,1.872 0.19196,0.67204 0.43196,1.34404 0.72,2.016 0.096,0.19204 0.14396,0.43204 0.144,0.72 -4e-5,0.38404 -0.096,0.76804 -0.288,1.152 -0.096,0.28804 -0.14404,0.62404 -0.144,1.008 -4e-5,0.38404 0.048,0.76804 0.144,1.152 0.096,0.28804 0.14396,0.62404 0.144,1.008 -4e-5,1.24804 -0.86404,3.12003 -2.592,5.616 -1.63204,2.49603 -3.55203,5.08803 -5.76,7.776 -2.20803,2.68802 -4.41603,5.13602 -6.624,7.344 -2.11202,2.20801 -3.69602,3.60001 -4.752,4.176 0.57598,1.24801 1.77598,2.30401 3.6,3.168 1.91997,0.76801 3.50397,1.15201 4.752,1.152 1.43997,1e-5 2.73597,-0.23999 3.888,-0.72 1.15197,-0.57599 2.15997,-1.15199 3.024,-1.728 0.86396,-0.67199 1.53596,-1.24799 2.016,-1.728 0.57596,-0.47999 0.95996,-0.71999 1.152,-0.72 l 0.576,0.144 c -0.19204,1.15201 -0.48004,2.06401 -0.864,2.736 -0.28804,0.67201 -0.67204,1.24801 -1.152,1.728 -0.48004,0.48001 -0.96004,1.00801 -1.44,1.584 -0.48004,0.48001 -0.86404,1.10401 -1.152,1.872 -0.67203,0.48 -1.24803,1.056 -1.728,1.728 -0.48003,0.576 -1.10403,1.104 -1.872,1.584 -2.20803,1.536 -4.22403,2.784 -6.048,3.744 -1.82402,0.864 -4.12802,1.296 -6.912,1.296 -1.05602,-0.576 -2.20802,-1.056 -3.456,-1.44 -1.15201,-0.48 -2.16001,-1.2 -3.024,-2.16 -0.57601,-0.576 -1.15201,-1.104 -1.728,-1.584 -0.57601,-0.48 -1.10401,-1.056 -1.584,-1.728 -1.82401,-2.49599 -3.60001,-5.37599 -5.328,-8.64 -1.728,-3.26398 -2.592,-6.52798 -2.592,-9.792 0,-3.64797 0.576,-7.00797 1.728,-10.08 1.248,-3.07196 2.73599,-6.14396 4.464,-9.216 0.76799,-1.34396 1.72799,-2.54396 2.88,-3.6 1.15199,-1.05595 2.20799,-2.15995 3.168,-3.312 1.43999,-1.82395 3.26398,-3.45595 5.472,-4.896 2.20798,-1.53595 4.55998,-2.30394 7.056,-2.304 m -14.688,18 0,6.48 c -1e-5,0.96003 0.096,2.06403 0.288,3.312 0.28799,1.15203 0.67199,2.11203 1.152,2.88 0.28799,0.48002 0.62399,1.29602 1.008,2.448 0.47999,1.05602 0.95999,2.16002 1.44,3.312 0.57598,1.15202 1.15198,2.20802 1.728,3.168 0.57598,0.86402 1.10398,1.34401 1.584,1.44 0.67198,-0.47998 1.29598,-0.81598 1.872,-1.008 0.57598,-0.19198 1.05598,-0.67198 1.44,-1.44 0.38398,-0.76798 0.86398,-1.43998 1.44,-2.016 0.67198,-0.57598 1.24798,-1.24798 1.728,-2.016 1.05597,-0.76798 1.96797,-1.63198 2.736,-2.592 0.76797,-1.05598 1.43997,-2.11197 2.016,-3.168 -3e-5,-1.15197 0.23997,-2.35197 0.72,-3.6 -3e-5,-3.35997 -1.00803,-6.28796 -3.024,-8.784 -1.92003,-2.49596 -4.51202,-4.22396 -7.776,-5.184 -0.48002,0.096 -0.96002,0.14404 -1.44,0.144 -0.38402,-0.096 -0.81602,-0.14396 -1.296,-0.144 -1.24802,4e-5 -2.16001,0.24004 -2.736,0.72 -0.57601,0.38404 -1.00801,0.91204 -1.296,1.584 -0.28801,0.57604 -0.52801,1.29604 -0.72,2.16 -0.19201,0.76804 -0.48001,1.53604 -0.864,2.304"
         style="font-weight:normal;font-family:Wernicke Schwabacher;-inkscape-font-specification:Wernicke Schwabacher;fill:#374837"
         id="path2999" />
      <path
         d="m 517.11525,93.098837 c 0.86396,1e-4 1.96796,0.192099 3.312,0.576 1.34396,0.384099 2.35196,0.816098 3.024,1.296 0.57596,0.960097 1.63195,1.968096 3.168,3.024 1.53595,1.056094 3.21595,2.064093 5.04,3.024003 1.82395,0.86409 3.59994,1.58409 5.328,2.16 1.82394,0.57609 3.31194,0.86409 4.464,0.864 0.76794,9e-5 1.77594,-0.28791 3.024,-0.864 1.24793,-0.57591 2.15993,-1.15191 2.736,-1.728 0.19193,-0.47991 0.52793,-0.76791 1.008,-0.864 0.57593,-0.0959 1.10393,-0.14391 1.584,-0.144 -0.0961,0.57609 -0.43207,1.39209 -1.008,2.448 -0.57607,0.96009 -1.29607,1.92008 -2.16,2.88 -0.76807,0.86408 -1.58407,1.68008 -2.448,2.448 -0.76806,0.67208 -1.44006,1.05608 -2.016,1.152 -1.34406,1.05608 -2.97606,2.06408 -4.896,3.024 -1.92006,0.96008 -3.74405,1.44008 -5.472,1.44 -2.40005,8e-5 -4.70405,-0.43192 -6.912,-1.296 -2.20804,-0.95992 -4.32004,-1.96792 -6.336,-3.024 -1.92004,-1.15192 -3.79204,-2.15992 -5.616,-3.024 -1.72803,-0.95992 -3.40803,-1.43992 -5.04,-1.44 -0.86403,8e-5 -1.68003,0.19208 -2.448,0.576 -0.76803,0.28808 -1.58402,0.48008 -2.448,0.576 -1.05602,0.0961 -1.92002,0.28808 -2.592,0.576 -0.57602,0.19208 -1.10402,0.52808 -1.584,1.008 -0.48002,0.38408 -1.00802,0.86408 -1.584,1.44 -0.48002,0.57608 -1.10402,1.24808 -1.872,2.016 -0.38402,0.38408 -0.57602,0.72008 -0.576,1.008 -2e-5,1.24808 0.52798,2.40007 1.584,3.456 1.15198,1.05607 2.44798,2.01607 3.888,2.88 1.53598,0.76807 3.07198,1.39207 4.608,1.872 1.63197,0.38407 2.97597,0.57607 4.032,0.576 1.91997,7e-5 3.83997,-0.33593 5.76,-1.008 2.01596,-0.76793 3.88796,-1.53593 5.616,-2.304 1.63196,-0.76793 3.40796,-1.19993 5.328,-1.296 2.01595,-0.19193 3.93595,-0.38393 5.76,-0.576 l -0.288,1.152 c 0.76795,-0.19193 1.53595,-0.38393 2.304,-0.576 0.76795,-0.19193 1.53594,-0.28793 2.304,-0.288 1.24794,7e-5 2.35194,0.28807 3.312,0.864 1.05594,0.48007 2.11194,0.96007 3.168,1.44 3.16793,1.63207 5.95193,3.55207 8.352,5.76 2.39993,2.20806 4.17592,5.08806 5.328,8.64 0.38392,1.24806 0.76792,2.25605 1.152,3.024 0.47992,0.67205 0.71992,1.68005 0.72,3.024 -8e-5,0.48005 0.0959,0.91205 0.288,1.296 0.28792,0.38405 0.43192,0.81605 0.432,1.296 -8e-5,1.92005 -0.0481,3.88804 -0.144,5.904 -0.0961,1.92004 -0.52808,3.79204 -1.296,5.616 -0.38408,0.76804 -0.62408,1.53604 -0.72,2.304 -0.0961,0.76803 -0.33608,1.53603 -0.72,2.304 -1.34407,2.78403 -2.78407,5.52003 -4.32,8.208 -1.44007,2.68802 -3.26407,5.13602 -5.472,7.344 -0.96007,0.38402 -1.53606,0.86402 -1.728,1.44 -0.67206,0.19201 -1.53606,0.72001 -2.592,1.584 -1.05606,0.76801 -2.16006,1.68001 -3.312,2.736 -1.05606,0.96001 -2.11206,1.96801 -3.168,3.024 -0.96005,0.96001 -1.68005,1.72801 -2.16,2.304 -0.86405,0.48 -1.63205,1.056 -2.304,1.728 -0.67205,0.576 -1.44005,1.104 -2.304,1.584 -0.76805,0.384 -1.34405,0.816 -1.728,1.296 -0.38405,0.384 -1.00805,0.672 -1.872,0.864 -1.63204,0.384 -3.02404,0.864 -4.176,1.44 -1.15204,0.576 -2.64004,0.864 -4.464,0.864 -1.15204,0 -2.16003,0 -3.024,0 -0.76803,-0.096 -1.68003,-0.384 -2.736,-0.864 -1.34403,0 -2.59203,-0.24 -3.744,-0.72 -1.05603,-0.576 -2.20802,-1.056 -3.456,-1.44 -1.05602,-0.768 -2.40002,-1.68 -4.032,-2.736 -1.53602,-1.152 -2.59202,-2.30399 -3.168,-3.456 -3.16801,-2.78399 -5.76001,-5.85599 -7.776,-9.216 -2.01601,-3.35998 -3.6,-6.91198 -4.752,-10.656 -1.152,-3.74397 -1.968,-7.58397 -2.448,-11.52 -0.384,-4.03196 -0.576,-8.06395 -0.576,-12.096 0,-0.76795 0.144,-1.48795 0.432,-2.16 0.384,-0.67195 0.624,-1.39195 0.72,-2.16 0.192,-1.63194 0.528,-3.16794 1.008,-4.608 0.576,-1.53594 0.96,-3.11994 1.152,-4.752 0.192,-1.82393 0.768,-3.64793 1.728,-5.472 1.05599,-1.91993 2.20799,-3.79193 3.456,-5.616 1.24799,-1.91992 2.54399,-3.74392 3.888,-5.472 1.34399,-1.82392 2.49598,-3.50392 3.456,-5.04 1.24798,-0.47991 2.20798,-1.19991 2.88,-2.16 1.91998,-2.39991 4.17598,-4.127908 6.768,-5.184003 2.59197,-1.055903 5.27997,-1.967902 8.064,-2.736 0.57597,-0.191901 1.10396,-0.383901 1.584,-0.576 0.57596,-0.191901 1.15196,-0.2879 1.728,-0.288 m -14.688,39.456003 c -1.44002,6e-5 -2.83202,-0.19194 -4.176,-0.576 -1.24802,-0.47994 -2.54402,-0.91194 -3.888,-1.296 -0.67201,-0.19194 -1.29601,-0.47994 -1.872,-0.864 -0.48001,-0.47994 -1.05601,-0.81594 -1.728,-1.008 -1e-5,1.15206 -0.096,2.30406 -0.288,3.456 -0.096,1.15206 -0.14401,2.30406 -0.144,3.456 -1e-5,1.15205 0.048,2.40005 0.144,3.744 0.19199,1.34405 0.38399,2.59205 0.576,3.744 0.096,0.86405 0.33599,1.92004 0.72,3.168 0.38399,1.15204 0.76799,2.35204 1.152,3.6 0.47999,1.15204 0.86399,2.35204 1.152,3.6 0.28799,1.15203 0.38399,2.16003 0.288,3.024 1.24798,1.82403 2.35198,3.74403 3.312,5.76 1.05598,2.01603 2.35198,3.79202 3.888,5.328 0.95998,0.96002 1.82398,1.96802 2.592,3.024 0.76797,0.96002 1.67997,1.87202 2.736,2.736 2.39997,2.20801 5.08797,3.98401 8.064,5.328 3.07196,1.24801 6.23996,1.87201 9.504,1.872 2.49595,1e-5 5.27995,-0.62399 8.352,-1.872 3.16794,-1.34399 5.56794,-2.97599 7.2,-4.896 0.76794,-0.86398 1.48794,-1.67998 2.16,-2.448 0.76794,-0.76798 1.15194,-1.77598 1.152,-3.024 0.19194,-0.19198 0.38394,-0.33598 0.576,-0.432 0.28794,-0.096 0.43194,-0.28798 0.432,-0.576 0.28793,-0.28798 0.43193,-0.57598 0.432,-0.864 -7e-5,-0.38398 -0.14407,-0.47998 -0.432,-0.288 0.57593,-0.67198 1.05593,-1.63197 1.44,-2.88 0.38393,-1.24797 0.67193,-2.54397 0.864,-3.888 0.19193,-1.43997 0.33593,-2.83197 0.432,-4.176 0.0959,-1.34396 0.14393,-2.49596 0.144,-3.456 -7e-5,-4.70396 -1.05607,-8.59195 -3.168,-11.664 -2.01606,-3.16795 -4.65606,-6.23994 -7.92,-9.216 -0.67206,-0.67194 -1.63205,-1.34394 -2.88,-2.016 -1.24805,-0.67194 -2.35205,-1.05594 -3.312,-1.152 -1.15205,-0.19194 -2.25605,-0.38394 -3.312,-0.576 -1.05605,-0.19194 -2.16004,-0.28794 -3.312,-0.288 -2.40004,6e-5 -4.46404,0.28806 -6.192,0.864 -1.72804,0.57606 -3.36003,1.24806 -4.896,2.016 -1.44003,0.67206 -2.92803,1.29606 -4.464,1.872 -1.53603,0.57606 -3.31202,0.86406 -5.328,0.864"
         style="font-weight:normal;font-family:Wernicke Schwabacher;-inkscape-font-specification:Wernicke Schwabacher;fill:#374837"
         id="path3001" />
      <path
         d="m 573.95025,131.83484 c 0.67198,6e-5 1.24798,0.28806 1.728,0.864 0.47998,0.57606 0.91198,1.24806 1.296,2.016 0.38398,0.76805 0.67198,1.53605 0.864,2.304 0.28798,0.76805 0.52798,1.39205 0.72,1.872 l 0,2.592 c -2e-5,0.86405 -2e-5,1.77605 0,2.736 -2e-5,0.86404 0.096,1.72804 0.288,2.592 1.53598,-1.72796 2.97598,-3.35995 4.32,-4.896 1.43997,-1.63195 2.92797,-3.07195 4.464,-4.32 1.63197,-1.24795 3.35997,-2.25595 5.184,-3.024 1.91996,-0.76794 4.12796,-1.15194 6.624,-1.152 2.97596,6e-5 5.66395,0.67206 8.064,2.016 2.39995,1.34405 4.41595,3.12005 6.048,5.328 1.72794,2.20805 3.02394,4.70404 3.888,7.488 0.86394,2.68804 1.29594,5.37604 1.296,8.064 -6e-5,1.53603 -0.14406,3.45603 -0.432,5.76 -0.28806,2.20803 -0.72006,3.98402 -1.296,5.328 -0.76806,1.82402 -1.68006,3.45602 -2.736,4.896 -0.96005,1.34402 -1.96805,2.83201 -3.024,4.464 -1.05605,1.53601 -2.01605,3.02401 -2.88,4.464 -0.76805,1.34401 -1.72805,2.73601 -2.88,4.176 -0.57605,0.768 -1.24804,1.44 -2.016,2.016 -0.76804,0.48 -1.39204,1.104 -1.872,1.872 -0.57604,0.864 -1.34404,1.584 -2.304,2.16 -0.86404,0.48 -1.77604,0.864 -2.736,1.152 -1.15204,0.384 -2.20803,0.768 -3.168,1.152 -0.96003,0.48 -2.11203,0.72 -3.456,0.72 -0.67203,0 -1.44003,-0.144 -2.304,-0.432 -0.86403,-0.192 -1.72803,-0.48 -2.592,-0.864 -0.76802,-0.384 -1.48802,-0.816 -2.16,-1.296 -0.67202,-0.576 -1.15202,-1.2 -1.44,-1.872 -0.38402,-0.384 -0.81602,-0.768 -1.296,-1.152 -0.38402,-0.384 -0.57602,-0.816 -0.576,-1.296 -2e-5,-0.288 0.28798,-0.912 0.864,-1.872 0.67198,-1.056 1.43998,-2.11199 2.304,-3.168 0.86398,-1.15199 1.67997,-2.20799 2.448,-3.168 0.76797,-0.95999 1.29597,-1.58399 1.584,-1.872 l 0.576,0 c 0.19197,1e-5 0.57597,0.28801 1.152,0.864 0.57597,0.57601 1.34397,1.20001 2.304,1.872 1.05597,0.57601 2.30397,1.15201 3.744,1.728 1.43996,0.57601 3.16796,0.86401 5.184,0.864 0.76796,10e-6 1.48796,-0.23999 2.16,-0.72 0.76796,-0.57599 1.43996,-1.19999 2.016,-1.872 0.57595,-0.76799 1.05595,-1.58399 1.44,-2.448 0.38395,-0.86399 0.67195,-1.58399 0.864,-2.16 1.05595,-1.43998 1.63195,-3.21598 1.728,-5.328 0.096,-2.11198 0.14395,-4.03198 0.144,-5.76 -5e-5,-2.78397 -0.43205,-5.37597 -1.296,-7.776 -0.86405,-2.49596 -2.11205,-4.60796 -3.744,-6.336 -1.53604,-1.82396 -3.45604,-3.26396 -5.76,-4.32 -2.30404,-1.05596 -4.89603,-1.58395 -7.776,-1.584 -0.86403,5e-5 -2.06403,0.24004 -3.6,0.72 -1.53602,0.48004 -2.68802,0.91204 -3.456,1.296 -0.38402,0.57604 -0.86402,1.05604 -1.44,1.44 -0.57602,0.38404 -1.05602,0.86404 -1.44,1.44 -0.76802,1.34404 -1.10402,2.88004 -1.008,4.608 0.19198,1.63203 0.28798,3.21603 0.288,4.752 -2e-5,0.57603 0.048,1.20003 0.144,1.872 0.096,0.57603 0.14398,1.20003 0.144,1.872 -2e-5,2.88002 -0.048,5.80802 -0.144,8.784 -0.096,2.88002 -0.14402,5.71201 -0.144,8.496 -2e-5,1.82401 0.048,3.64801 0.144,5.472 0.096,1.728 0.14398,3.456 0.144,5.184 -2e-5,0.096 -0.048,0.384 -0.144,0.864 -2e-5,0.384 -0.048,0.816 -0.144,1.296 -0.096,0.576 -0.19202,1.056 -0.288,1.44 -2e-5,0.48 -2e-5,0.71999 0,0.72 l 0,0.72 c -2e-5,1.34399 -0.24002,2.68799 -0.72,4.032 -0.48002,1.43999 -1.05602,2.87999 -1.728,4.32 -0.57602,1.43998 -1.24802,2.78398 -2.016,4.032 -0.67201,1.34398 -1.24801,2.59198 -1.728,3.744 -0.57601,1.34398 -1.34401,2.44798 -2.304,3.312 -0.96001,0.95997 -1.72801,2.01597 -2.304,3.168 -0.38401,0.67197 -0.86401,1.19997 -1.44,1.584 -0.48001,0.47997 -0.86401,1.05597 -1.152,1.728 -0.096,0.28797 -0.33601,0.62397 -0.72,1.008 -0.384,0.47997 -0.816,0.91197 -1.296,1.296 -0.384,0.47997 -0.816,0.86397 -1.296,1.152 -0.384,0.38396 -0.72,0.57596 -1.008,0.576 -0.192,-4e-5 -0.336,-0.048 -0.432,-0.144 -0.096,-4e-5 -0.192,-4e-5 -0.288,0 0,-0.28804 0.144,-0.72003 0.432,-1.296 0.288,-0.57603 0.624,-1.20003 1.008,-1.872 0.48,-0.57603 0.912,-1.15203 1.296,-1.728 0.384,-0.57603 0.672,-0.96003 0.864,-1.152 0.576,-0.19203 0.91199,-0.57603 1.008,-1.152 0.096,-0.48003 0.23999,-0.96003 0.432,-1.44 1.15199,-1.24803 2.06399,-2.88002 2.736,-4.896 0.67199,-2.01602 1.15199,-4.17602 1.44,-6.48 0.38399,-2.20801 0.62399,-4.41601 0.72,-6.624 0.19199,-2.20801 0.28799,-4.128 0.288,-5.76 -10e-6,-1.632 -0.096,-3.216 -0.288,-4.752 -0.096,-1.632 -0.14401,-3.312 -0.144,-5.04 -10e-6,-0.95999 -0.048,-1.87199 -0.144,-2.736 -0.096,-0.95999 -0.14401,-1.96799 -0.144,-3.024 -1e-5,-2.20799 -0.048,-4.31998 -0.144,-6.336 -0.096,-2.11198 -0.14401,-4.27198 -0.144,-6.48 -1e-5,-1.05597 -0.048,-2.54397 -0.144,-4.464 -10e-6,-2.01597 -0.096,-4.03197 -0.288,-6.048 -0.096,-2.01596 -0.28801,-3.93596 -0.576,-5.76 -0.28801,-1.82396 -0.72001,-3.11996 -1.296,-3.888 -0.28801,-0.47995 -0.62401,-0.91195 -1.008,-1.296 -0.38401,-0.38395 -0.67201,-0.81595 -0.864,-1.296 -10e-6,-0.38395 0.38399,-1.10395 1.152,-2.16 0.76799,-1.15195 1.63199,-2.30395 2.592,-3.456 0.95999,-1.15195 1.91999,-2.15994 2.88,-3.024 0.95999,-0.86394 1.67999,-1.29594 2.16,-1.296"
         style="font-weight:normal;font-family:Wernicke Schwabacher;-inkscape-font-specification:Wernicke Schwabacher;fill:#374837"
         id="path3003" />
      <path
         d="m 645.94575,131.97884 c 2.39997,6e-5 4.65597,0.43206 6.768,1.296 2.20796,0.76806 4.17596,1.92005 5.904,3.456 1.72796,1.44005 3.16796,3.16805 4.32,5.184 1.24796,1.92005 2.15995,4.03204 2.736,6.336 0.19195,0.96004 0.52795,2.01604 1.008,3.168 0.57595,1.05604 0.86395,2.11204 0.864,3.168 -5e-5,0.38403 -0.048,0.76803 -0.144,1.152 -0.096,0.38403 -0.14405,0.76803 -0.144,1.152 -5e-5,0.48003 0.096,0.96003 0.288,1.44 0.19195,0.38403 0.28795,0.81603 0.288,1.296 -5e-5,0.86403 -0.14405,1.72803 -0.432,2.592 -0.19205,0.86403 -0.38405,1.72803 -0.576,2.592 -0.57605,0.86402 -0.96005,1.82402 -1.152,2.88 -0.19205,0.96002 -0.67205,1.82402 -1.44,2.592 -0.76804,0.86402 -1.44004,1.82402 -2.016,2.88 -0.48004,1.05602 -1.10404,2.01601 -1.872,2.88 -1.15204,1.34401 -2.35204,2.54401 -3.6,3.6 -1.15204,1.05601 -2.25603,2.35201 -3.312,3.888 -0.76803,1.05601 -1.68003,2.016 -2.736,2.88 -0.96003,0.864 -1.82403,1.824 -2.592,2.88 -0.96003,1.248 -2.54403,2.064 -4.752,2.448 -2.11202,0.288 -3.88802,0.432 -5.328,0.432 -1.34402,0 -2.49602,-0.336 -3.456,-1.008 -0.96001,-0.672 -1.96801,-1.392 -3.024,-2.16 -1.05601,-0.768 -2.11201,-1.584 -3.168,-2.448 -0.96001,-0.96 -1.82401,-1.96799 -2.592,-3.024 -0.57601,-0.67199 -1.2,-1.67999 -1.872,-3.024 -0.576,-1.43999 -1.152,-2.87999 -1.728,-4.32 -0.576,-1.53599 -1.056,-3.02398 -1.44,-4.464 -0.288,-1.53598 -0.432,-2.73598 -0.432,-3.6 0,-4.12797 0.288,-7.96797 0.864,-11.52 0.576,-3.55196 2.352,-6.91196 5.328,-10.08 1.05599,-1.15196 2.11199,-2.44795 3.168,-3.888 1.05599,-1.43995 2.15999,-2.68795 3.312,-3.744 0.47999,-0.47995 0.81599,-0.86395 1.008,-1.152 0.28799,-0.28795 0.52799,-0.71995 0.72,-1.296 1.24798,-1.24795 2.97598,-2.30394 5.184,-3.168 2.20798,-0.86394 4.22398,-1.29594 6.048,-1.296 m -13.392,12.384 c -0.76801,1.82404 -1.34401,3.84004 -1.728,6.048 -0.38401,2.20804 -0.57601,4.27203 -0.576,6.192 -10e-6,3.84003 0.57599,7.24803 1.728,10.224 1.24799,2.88002 3.11998,5.71202 5.616,8.496 0.76798,0.86401 1.58398,1.72801 2.448,2.592 0.86398,0.76801 1.87198,1.34401 3.024,1.728 1.34398,0.38401 2.63997,0.72001 3.888,1.008 1.34397,0.19201 2.73597,0.28801 4.176,0.288 1.34397,1e-5 2.44797,-0.52799 3.312,-1.584 0.86396,-1.05599 1.53596,-2.35199 2.016,-3.888 0.47996,-1.53598 0.76796,-3.07198 0.864,-4.608 0.19196,-1.53598 0.28796,-2.83198 0.288,-3.888 -4e-5,-1.53598 -0.24004,-3.40797 -0.72,-5.616 -0.48004,-2.20797 -1.15204,-3.93597 -2.016,-5.184 -0.28803,-1.63196 -0.91203,-3.02396 -1.872,-4.176 -0.86403,-1.24796 -1.77603,-2.49596 -2.736,-3.744 -0.48003,-0.57596 -1.00803,-1.05596 -1.584,-1.44 -0.48003,-0.38396 -0.91203,-0.86396 -1.296,-1.44 -0.96003,-0.57596 -2.25603,-1.05595 -3.888,-1.44 -1.63202,-0.47995 -2.97602,-0.71995 -4.032,-0.72 -1.15202,5e-5 -2.35202,0.0961 -3.6,0.288 -1.15202,0.096 -2.25601,0.38405 -3.312,0.864"
         style="font-weight:normal;font-family:Wernicke Schwabacher;-inkscape-font-specification:Wernicke Schwabacher;fill:#374837"
         id="path3005" />
      <path
         d="m 687.25125,106.34684 c 0.19198,0.57608 0.28798,1.15208 0.288,1.728 -2e-5,1.05608 -0.33602,2.54408 -1.008,4.464 -0.57602,1.82408 -0.86402,3.84007 -0.864,6.048 -2e-5,1.05607 0.048,2.06407 0.144,3.024 0.096,0.96007 0.14398,1.96807 0.144,3.024 -2e-5,0.86406 0.096,1.68006 0.288,2.448 0.19198,0.76806 0.81598,1.15206 1.872,1.152 0.38398,6e-5 0.76798,-0.0479 1.152,-0.144 0.38398,-0.0959 0.81598,-0.14394 1.296,-0.144 0.19198,-0.0959 0.47998,-0.23994 0.864,-0.432 0.47998,-0.28794 0.95998,-0.52794 1.44,-0.72 0.47998,-0.28794 0.91197,-0.52794 1.296,-0.72 0.47997,-0.19194 0.76797,-0.28794 0.864,-0.288 0.86397,6e-5 1.29597,0.33606 1.296,1.008 -3e-5,0.19206 -0.048,0.33606 -0.144,0.432 -3e-5,0.57606 -0.48003,1.58406 -1.44,3.024 -0.86403,1.34406 -1.92002,2.83206 -3.168,4.464 -1.15202,1.63205 -2.30402,3.21605 -3.456,4.752 -1.05602,1.44005 -1.77602,2.49605 -2.16,3.168 -0.19202,1.63205 -0.33602,3.16804 -0.432,4.608 -0.096,1.44004 -0.14402,2.97604 -0.144,4.608 -2e-5,1.05604 -0.096,2.16004 -0.288,3.312 -0.19202,1.05603 -0.24002,2.16003 -0.144,3.312 0.096,1.92003 0.096,3.79203 0,5.616 -0.096,1.82402 -0.14402,3.69602 -0.144,5.616 -2e-5,1.05602 0.048,2.06402 0.144,3.024 0.19198,0.86402 0.28798,1.82402 0.288,2.88 0.47998,0.48001 0.91198,1.00801 1.296,1.584 0.47998,0.57601 1.00798,1.05601 1.584,1.44 0.096,0.48001 0.14398,0.96001 0.144,1.44 -2e-5,0.38401 -2e-5,0.81601 0,1.296 -2e-5,0.67201 -0.33602,1.53601 -1.008,2.592 -0.57602,1.056 -1.29602,2.112 -2.16,3.168 -0.76802,0.96 -1.58401,1.92 -2.448,2.88 -0.76801,0.864 -1.39201,1.488 -1.872,1.872 -0.38401,0.096 -0.86401,0.144 -1.44,0.144 -1.34401,0 -2.40001,-0.576 -3.168,-1.728 -0.67201,-1.152 -1.20001,-2.544 -1.584,-4.176 -0.28801,-1.63199 -0.48001,-3.31199 -0.576,-5.04 -0.096,-1.72799 -0.14401,-3.16799 -0.144,-4.32 -10e-6,-1.43999 -10e-6,-3.11998 0,-5.04 -10e-6,-1.91998 0.048,-3.88798 0.144,-5.904 0.096,-2.01597 0.19199,-3.98397 0.288,-5.904 0.096,-1.91997 0.23999,-3.59997 0.432,-5.04 0.19199,-1.53596 0.33599,-3.02396 0.432,-4.464 0.096,-1.53596 0.14399,-3.07196 0.144,-4.608 -10e-6,-0.57596 -10e-6,-1.15196 0,-1.728 -10e-6,-0.67195 -0.048,-1.34395 -0.144,-2.016 -10e-6,5e-5 -0.28801,-0.14395 -0.864,-0.432 -0.57601,-0.38395 -1.2,-0.71995 -1.872,-1.008 -0.672,-0.38395 -1.344,-0.71995 -2.016,-1.008 -0.576,-0.38395 -0.912,-0.62395 -1.008,-0.72 -0.096,-0.19195 -0.144,-0.43195 -0.144,-0.72 0,-1.15195 0.288,-2.25595 0.864,-3.312 0.672,-1.15194 1.392,-2.25594 2.16,-3.312 0.864,-1.15194 1.67999,-2.20794 2.448,-3.168 0.76799,-1.05594 1.24799,-2.06394 1.44,-3.024 0.19199,-0.86393 0.62399,-2.01593 1.296,-3.456 0.67199,-1.43993 1.39199,-2.92793 2.16,-4.464 0.86399,-1.63193 1.67999,-3.11992 2.448,-4.464 0.86399,-1.34392 1.53598,-2.35192 2.016,-3.024 0.47998,-0.67192 1.00798,-1.29592 1.584,-1.872 0.57598,-0.57592 1.10398,-1.15192 1.584,-1.728"
         style="font-weight:normal;font-family:Wernicke Schwabacher;-inkscape-font-specification:Wernicke Schwabacher;fill:#374837"
         id="path3007" />
      <path
         d="m 710.595,106.34684 c 0.19198,0.57608 0.28798,1.15208 0.288,1.728 -2e-5,1.05608 -0.33602,2.54408 -1.008,4.464 -0.57602,1.82408 -0.86402,3.84007 -0.864,6.048 -2e-5,1.05607 0.048,2.06407 0.144,3.024 0.096,0.96007 0.14398,1.96807 0.144,3.024 -2e-5,0.86406 0.096,1.68006 0.288,2.448 0.19198,0.76806 0.81598,1.15206 1.872,1.152 0.38398,6e-5 0.76798,-0.0479 1.152,-0.144 0.38398,-0.0959 0.81598,-0.14394 1.296,-0.144 0.19198,-0.0959 0.47998,-0.23994 0.864,-0.432 0.47998,-0.28794 0.95998,-0.52794 1.44,-0.72 0.47998,-0.28794 0.91197,-0.52794 1.296,-0.72 0.47997,-0.19194 0.76797,-0.28794 0.864,-0.288 0.86397,6e-5 1.29597,0.33606 1.296,1.008 -3e-5,0.19206 -0.048,0.33606 -0.144,0.432 -3e-5,0.57606 -0.48003,1.58406 -1.44,3.024 -0.86403,1.34406 -1.92002,2.83206 -3.168,4.464 -1.15202,1.63205 -2.30402,3.21605 -3.456,4.752 -1.05602,1.44005 -1.77602,2.49605 -2.16,3.168 -0.19202,1.63205 -0.33602,3.16804 -0.432,4.608 -0.096,1.44004 -0.14402,2.97604 -0.144,4.608 -2e-5,1.05604 -0.096,2.16004 -0.288,3.312 -0.19202,1.05603 -0.24002,2.16003 -0.144,3.312 0.096,1.92003 0.096,3.79203 0,5.616 -0.096,1.82402 -0.14402,3.69602 -0.144,5.616 -2e-5,1.05602 0.048,2.06402 0.144,3.024 0.19198,0.86402 0.28798,1.82402 0.288,2.88 0.47998,0.48001 0.91198,1.00801 1.296,1.584 0.47998,0.57601 1.00798,1.05601 1.584,1.44 0.096,0.48001 0.14398,0.96001 0.144,1.44 -2e-5,0.38401 -2e-5,0.81601 0,1.296 -2e-5,0.67201 -0.33602,1.53601 -1.008,2.592 -0.57602,1.056 -1.29602,2.112 -2.16,3.168 -0.76802,0.96 -1.58401,1.92 -2.448,2.88 -0.76801,0.864 -1.39201,1.488 -1.872,1.872 -0.38401,0.096 -0.86401,0.144 -1.44,0.144 -1.34401,0 -2.40001,-0.576 -3.168,-1.728 -0.67201,-1.152 -1.20001,-2.544 -1.584,-4.176 -0.28801,-1.63199 -0.48001,-3.31199 -0.576,-5.04 -0.096,-1.72799 -0.14401,-3.16799 -0.144,-4.32 -10e-6,-1.43999 -10e-6,-3.11998 0,-5.04 -10e-6,-1.91998 0.048,-3.88798 0.144,-5.904 0.096,-2.01597 0.19199,-3.98397 0.288,-5.904 0.096,-1.91997 0.23999,-3.59997 0.432,-5.04 0.19199,-1.53596 0.33599,-3.02396 0.432,-4.464 0.096,-1.53596 0.14399,-3.07196 0.144,-4.608 -10e-6,-0.57596 -10e-6,-1.15196 0,-1.728 -10e-6,-0.67195 -0.048,-1.34395 -0.144,-2.016 -10e-6,5e-5 -0.28801,-0.14395 -0.864,-0.432 -0.57601,-0.38395 -1.2,-0.71995 -1.872,-1.008 -0.672,-0.38395 -1.344,-0.71995 -2.016,-1.008 -0.576,-0.38395 -0.912,-0.62395 -1.008,-0.72 -0.096,-0.19195 -0.144,-0.43195 -0.144,-0.72 0,-1.15195 0.288,-2.25595 0.864,-3.312 0.672,-1.15194 1.392,-2.25594 2.16,-3.312 0.864,-1.15194 1.67999,-2.20794 2.448,-3.168 0.76799,-1.05594 1.24799,-2.06394 1.44,-3.024 0.19199,-0.86393 0.62399,-2.01593 1.296,-3.456 0.67199,-1.43993 1.39199,-2.92793 2.16,-4.464 0.86399,-1.63193 1.67999,-3.11992 2.448,-4.464 0.86399,-1.34392 1.53598,-2.35192 2.016,-3.024 0.47998,-0.67192 1.00798,-1.29592 1.584,-1.872 0.57598,-0.57592 1.10398,-1.15192 1.584,-1.728"
         style="font-weight:normal;font-family:Wernicke Schwabacher;-inkscape-font-specification:Wernicke Schwabacher;fill:#374837"
         id="path3009" />
      <path
         d="m 742.113,133.99484 c 3.07197,6e-5 5.71197,0.91205 7.92,2.736 2.30396,1.72805 4.12796,3.84005 5.472,6.336 0.38396,0.57605 0.62396,1.20005 0.72,1.872 0.19196,0.67204 0.43196,1.34404 0.72,2.016 0.096,0.19204 0.14396,0.43204 0.144,0.72 -4e-5,0.38404 -0.096,0.76804 -0.288,1.152 -0.096,0.28804 -0.14404,0.62404 -0.144,1.008 -4e-5,0.38404 0.048,0.76804 0.144,1.152 0.096,0.28804 0.14396,0.62404 0.144,1.008 -4e-5,1.24804 -0.86404,3.12003 -2.592,5.616 -1.63204,2.49603 -3.55203,5.08803 -5.76,7.776 -2.20803,2.68802 -4.41603,5.13602 -6.624,7.344 -2.11202,2.20801 -3.69602,3.60001 -4.752,4.176 0.57598,1.24801 1.77598,2.30401 3.6,3.168 1.91997,0.76801 3.50397,1.15201 4.752,1.152 1.43997,1e-5 2.73597,-0.23999 3.888,-0.72 1.15197,-0.57599 2.15997,-1.15199 3.024,-1.728 0.86396,-0.67199 1.53596,-1.24799 2.016,-1.728 0.57596,-0.47999 0.95996,-0.71999 1.152,-0.72 l 0.576,0.144 c -0.19204,1.15201 -0.48004,2.06401 -0.864,2.736 -0.28804,0.67201 -0.67204,1.24801 -1.152,1.728 -0.48004,0.48001 -0.96004,1.00801 -1.44,1.584 -0.48004,0.48001 -0.86404,1.10401 -1.152,1.872 -0.67203,0.48 -1.24803,1.056 -1.728,1.728 -0.48003,0.576 -1.10403,1.104 -1.872,1.584 -2.20803,1.536 -4.22403,2.784 -6.048,3.744 -1.82402,0.864 -4.12802,1.296 -6.912,1.296 -1.05602,-0.576 -2.20802,-1.056 -3.456,-1.44 -1.15201,-0.48 -2.16001,-1.2 -3.024,-2.16 -0.57601,-0.576 -1.15201,-1.104 -1.728,-1.584 -0.57601,-0.48 -1.10401,-1.056 -1.584,-1.728 -1.82401,-2.49599 -3.60001,-5.37599 -5.328,-8.64 -1.728,-3.26398 -2.592,-6.52798 -2.592,-9.792 0,-3.64797 0.576,-7.00797 1.728,-10.08 1.248,-3.07196 2.73599,-6.14396 4.464,-9.216 0.76799,-1.34396 1.72799,-2.54396 2.88,-3.6 1.15199,-1.05595 2.20799,-2.15995 3.168,-3.312 1.43999,-1.82395 3.26398,-3.45595 5.472,-4.896 2.20798,-1.53595 4.55998,-2.30394 7.056,-2.304 m -14.688,18 0,6.48 c -10e-6,0.96003 0.096,2.06403 0.288,3.312 0.28799,1.15203 0.67199,2.11203 1.152,2.88 0.28799,0.48002 0.62399,1.29602 1.008,2.448 0.47999,1.05602 0.95999,2.16002 1.44,3.312 0.57598,1.15202 1.15198,2.20802 1.728,3.168 0.57598,0.86402 1.10398,1.34401 1.584,1.44 0.67198,-0.47998 1.29598,-0.81598 1.872,-1.008 0.57598,-0.19198 1.05598,-0.67198 1.44,-1.44 0.38398,-0.76798 0.86398,-1.43998 1.44,-2.016 0.67198,-0.57598 1.24798,-1.24798 1.728,-2.016 1.05597,-0.76798 1.96797,-1.63198 2.736,-2.592 0.76797,-1.05598 1.43997,-2.11197 2.016,-3.168 -3e-5,-1.15197 0.23997,-2.35197 0.72,-3.6 -3e-5,-3.35997 -1.00803,-6.28796 -3.024,-8.784 -1.92003,-2.49596 -4.51202,-4.22396 -7.776,-5.184 -0.48002,0.096 -0.96002,0.14404 -1.44,0.144 -0.38402,-0.096 -0.81602,-0.14396 -1.296,-0.144 -1.24802,4e-5 -2.16001,0.24004 -2.736,0.72 -0.57601,0.38404 -1.00801,0.91204 -1.296,1.584 -0.28801,0.57604 -0.52801,1.29604 -0.72,2.16 -0.19201,0.76804 -0.48001,1.53604 -0.864,2.304"
         style="font-weight:normal;font-family:Wernicke Schwabacher;-inkscape-font-specification:Wernicke Schwabacher;fill:#374837"
         id="path3011" />
      <path
         d="m 767.0475,133.56284 c 0.38399,-0.19194 0.81599,-0.0479 1.296,0.432 0.47999,0.38406 0.95999,0.91205 1.44,1.584 0.47999,0.57605 0.91199,1.20005 1.296,1.872 0.47999,0.57605 0.81599,0.96005 1.008,1.152 -10e-6,0.86405 0.096,1.72805 0.288,2.592 0.28799,0.76805 0.43198,1.58405 0.432,2.448 0.28798,-0.28795 0.62398,-0.43195 1.008,-0.432 0.95998,-0.95995 1.87198,-1.96795 2.736,-3.024 0.86398,-1.15195 1.77598,-2.20795 2.736,-3.168 0.95998,-0.95995 2.01598,-1.77595 3.168,-2.448 1.15197,-0.67194 2.49597,-1.00794 4.032,-1.008 1.63197,6e-5 3.35997,0.43206 5.184,1.296 1.82396,0.86405 2.97596,2.11205 3.456,3.744 -0.19204,0.48005 -0.67204,1.24805 -1.44,2.304 -0.76804,0.96005 -1.68003,1.96805 -2.736,3.024 -0.96003,0.96004 -1.96803,1.82404 -3.024,2.592 -0.96003,0.67204 -1.72803,1.00804 -2.304,1.008 -0.76803,4e-5 -1.82403,-0.47996 -3.168,-1.44 -1.24802,-0.95996 -2.88002,-1.43996 -4.896,-1.44 -0.86402,4e-5 -1.68002,0.19204 -2.448,0.576 -0.67202,0.38404 -1.34402,0.81604 -2.016,1.296 -0.19202,0.28804 -0.28802,0.81604 -0.288,1.584 -2e-5,3.36004 0.048,6.76803 0.144,10.224 0.19198,3.36003 0.28798,6.72002 0.288,10.08 -2e-5,1.34402 -0.048,2.68802 -0.144,4.032 -2e-5,1.24802 -2e-5,2.54401 0,3.888 -2e-5,0.57601 -0.048,1.39201 -0.144,2.448 -0.096,1.05601 -0.048,1.82401 0.144,2.304 0.19198,0.48001 0.43198,0.86401 0.72,1.152 0.28798,0.28801 0.43198,0.67201 0.432,1.152 -2e-5,0.19201 -0.38402,0.72001 -1.152,1.584 -0.67201,0.768 -1.48801,1.68 -2.448,2.736 -0.86401,0.96 -1.77601,1.824 -2.736,2.592 -0.96001,0.768 -1.68001,1.152 -2.16,1.152 -0.57601,0 -1.24801,-0.096 -2.016,-0.288 -0.38401,-1.056 -0.62401,-2.16 -0.72,-3.312 -10e-6,-1.248 -10e-6,-2.448 0,-3.6 -10e-6,-1.34399 0.048,-2.68799 0.144,-4.032 0.096,-1.34399 0.14399,-2.68799 0.144,-4.032 -10e-6,-0.76799 -0.048,-1.48799 -0.144,-2.16 -0.096,-0.76798 -0.14401,-1.53598 -0.144,-2.304 0.096,-0.28798 0.14399,-0.67198 0.144,-1.152 -10e-6,-1.24798 -10e-6,-2.92798 0,-5.04 -10e-6,-2.20797 -0.048,-4.41597 -0.144,-6.624 -0.096,-2.30397 -0.24001,-4.46396 -0.432,-6.48 -0.096,-2.11196 -0.288,-3.74396 -0.576,-4.896 -0.48,-0.57596 -0.912,-1.10396 -1.296,-1.584 -0.384,-0.57596 -0.672,-1.24796 -0.864,-2.016 -0.192,-0.19195 -0.432,-0.33595 -0.72,-0.432 -0.288,-0.19195 -0.528,-0.38395 -0.72,-0.576 0.096,-0.47995 0.528,-1.24795 1.296,-2.304 0.768,-1.15195 1.584,-2.25595 2.448,-3.312 0.95999,-1.15195 1.87199,-2.11195 2.736,-2.88 0.95999,-0.76794 1.67999,-1.05594 2.16,-0.864"
         style="font-weight:normal;font-family:Wernicke Schwabacher;-inkscape-font-specification:Wernicke Schwabacher;fill:#374837"
         id="path3013" />
    </g>
  </g>
</svg>
