<?xml version="1.0" encoding="UTF-8" standalone="no"?>
<!-- Created with Inkscape (http://www.inkscape.org/) -->

<svg
   xmlns:dc="http://purl.org/dc/elements/1.1/"
   xmlns:cc="http://creativecommons.org/ns#"
   xmlns:rdf="http://www.w3.org/1999/02/22-rdf-syntax-ns#"
   xmlns:svg="http://www.w3.org/2000/svg"
   xmlns="http://www.w3.org/2000/svg"
   xmlns:sodipodi="http://sodipodi.sourceforge.net/DTD/sodipodi-0.dtd"
   xmlns:inkscape="http://www.inkscape.org/namespaces/inkscape"
   width="16px"
   height="16px"
   id="svg2985"
   version="1.1"
   inkscape:version="0.48.4 r9939"
   sodipodi:docname="drawing.svg"
   inkscape:export-filename="/home/lena/Dropbox/mumtemplate/drawing.png"
   inkscape:export-xdpi="90"
   inkscape:export-ydpi="90">
  <defs
     id="defs2987" />
  <sodipodi:namedview
     id="base"
     pagecolor="#ffffff"
     bordercolor="#666666"
     borderopacity="1.0"
     inkscape:pageopacity="0.0"
     inkscape:pageshadow="2"
     inkscape:zoom="22.197802"
     inkscape:cx="2.6841584"
     inkscape:cy="8"
     inkscape:current-layer="layer1"
     showgrid="true"
     inkscape:grid-bbox="true"
     inkscape:document-units="px"
     inkscape:window-width="1225"
     inkscape:window-height="776"
     inkscape:window-x="55"
     inkscape:window-y="24"
     inkscape:window-maximized="1" />
  <metadata
     id="metadata2990">
    <rdf:RDF>
      <cc:Work
         rdf:about="">
        <dc:format>image/svg+xml</dc:format>
        <dc:type
           rdf:resource="http://purl.org/dc/dcmitype/StillImage" />
        <dc:title></dc:title>
      </cc:Work>
    </rdf:RDF>
  </metadata>
  <g
     inkscape:groupmode="layer"
     id="layer3"
     inkscape:label="Layer#1">
    <path
       transform="matrix(1.0143678,0,0,0.9516129,-2.6967566,-0.04033058)"
       style="fill:#ffcc00;fill-opacity:1;stroke:none"
       d="m 18.380198,8.4767323 c 0,4.6277087 -3.509467,8.3792077 -7.838614,8.3792077 -4.3291469,0 -7.838614,-3.751499 -7.838614,-8.3792077 0,-4.6277086 3.5094671,-8.37920766 7.838614,-8.37920766 4.329147,0 7.838614,3.75149906 7.838614,8.37920766 z"
       id="path3001" />
  </g>
  <g
     id="layer1"
     inkscape:label="Layer 1"
     inkscape:groupmode="layer">
    <g
       style="font-size:10px;font-style:normal;font-variant:normal;font-weight:bold;font-stretch:normal;text-align:center;line-height:125%;letter-spacing:0px;word-spacing:0px;text-anchor:middle;fill:#330080;fill-opacity:1;stroke:none;font-family:PerryGothic;-inkscape-font-specification:PerryGothic Bold"
       id="text2993">
      <path
         d="m 8.4554234,4.3484955 c -8e-6,0.021341 -0.2346745,0.2693406 -0.704,0.744 -0.2560071,0.2560066 -0.4320069,0.4560064 -0.528,0.6 -0.2400066,0.3520059 -0.458673,0.7333388 -0.656,1.144 -0.074673,0.1600049 -0.168006,0.2400049 -0.28,0.24 -0.053339,4.9e-6 -0.1120058,-0.023995 -0.176,-0.072 -0.058672,-0.053328 -0.088006,-0.103995 -0.088,-0.152 -5.6e-6,-0.010662 0.079994,-0.1813281 0.24,-0.512 0.1653273,-0.3306607 0.2479939,-0.5093272 0.248,-0.536 -0.3253391,-0.015994 -0.5706722,-0.029327 -0.736,-0.04 -0.4853382,-0.031994 -0.7626713,-0.055994 -0.832,-0.072 -0.069338,-0.015994 -0.226671,-0.061327 -0.472,-0.136 -0.2453372,-0.079993 -0.389337,-0.1199935 -0.432,-0.12 -0.2080034,6.5e-6 -0.5066698,0.2160063 -0.896,0.648 -0.4480023,0.5013387 -0.6720021,0.9946715 -0.672,1.48 l 0,0.6 c -2.1e-6,0.3146701 0.1039978,0.6506698 0.312,1.008 0.250664,0.426669 0.5866637,0.768002 1.008,1.0240005 0.5173294,0.314668 1.1119955,0.472001 1.784,0.472 0.3519945,1e-6 0.6906608,-0.111999 1.016,-0.336 0.3253268,-0.223999 0.52266,-0.3359986 0.592,-0.3360005 0.095993,1.9e-6 0.1573264,0.026668 0.184,0.080001 0.02666,0.05333 0.039993,0.112001 0.04,0.176 -7e-6,0.250668 -0.2506734,0.576001 -0.752,0.976 -0.5600057,0.448 -1.1066718,0.672 -1.64,0.672 l -0.712,0 c -0.6240033,0 -1.277336,-0.301334 -1.96,-0.904 -0.7093346,-0.629332 -1.0640009,-1.2613316 -1.064,-1.8960005 l 0,-0.864 c 0.015999,-0.1333295 0.031999,-0.2666627 0.048,-0.4 0.085332,-0.3413289 0.2533322,-0.6959952 0.504,-1.064 0.3519982,-0.5119943 0.8399977,-1.0079938 1.464,-1.488 -0.2400026,-0.063993 -0.4560024,-0.1173266 -0.648,-0.16 -0.3146686,-0.069326 -0.5466684,-0.1039931 -0.696,-0.104 -0.4320011,6.9e-6 -0.7440008,0.21334 -0.936,0.64 -0.19200041,0.4213392 -0.31733362,0.6320056 -0.37600001,0.632 -0.0960001,5.6e-6 -0.1573334,-0.026661 -0.184,-0.08 -0.0266667,-0.058661 -0.04,-0.1439941 -0.04,-0.256 0,-0.4693269 0.25066642,-0.9279931 0.75200001,-1.376 0.5066654,-0.4533255 1.0159982,-0.679992 1.528,-0.68 l 1.008,0 3.032,0.632 c 0.4586599,-0.1226591 0.7733262,-0.2079924 0.944,-0.256 0.1706592,-0.053326 0.3306591,-0.1039922 0.48,-0.152 0.058659,7.8e-6 0.1226588,0.024008 0.192,0.072 0.069325,0.042674 0.103992,0.093341 0.104,0.152"
         style="font-size:8px;fill:#330080"
         id="path3004" />
      <path
         d="m 15.677548,8.9964955 c -7e-6,0.3413359 -0.114673,0.7226689 -0.344,1.1440005 -0.266673,0.496001 -0.616006,0.896 -1.048,1.2 -0.528005,0.373333 -1.120004,0.56 -1.776,0.56 l -0.776,0 c -0.698669,0 -1.309335,-0.152 -1.8319996,-0.456 -0.5173342,-0.304 -0.9253338,-0.735999 -1.224,-1.296 -0.042667,-0.048 -0.072,-0.088 -0.088,-0.12 -0.064,-0.1013318 -0.096,-0.1839984 -0.096,-0.2480005 l 0,-0.376 c 0,-0.2719972 0.1093332,-0.5066636 0.328,-0.704 0.2186661,-0.1973299 0.4559992,-0.2959965 0.712,-0.296 0.2133321,3.5e-6 0.4079985,0.056004 0.5839996,0.168 0.181332,0.1066699 0.271998,0.2373365 0.272,0.392 l 0,0.112 c -0.282668,2.9e-6 -0.4773344,0.045336 -0.5839996,0.136 -0.1066679,0.090669 -0.1600012,0.2560025 -0.16,0.496 -1.2e-6,0.4160015 0.1999986,0.7946685 0.5999996,1.1360005 0.453332,0.384 1.021331,0.576 1.704,0.576 0.618663,0 1.146662,-0.202666 1.584,-0.608 0.437328,-0.410666 0.655995,-0.8666652 0.656,-1.3680005 -5e-6,-0.4693304 -0.165338,-0.87733 -0.496,-1.224 -0.325338,-0.3519959 -0.693337,-0.5279958 -1.104,-0.528 -0.320003,4.2e-6 -0.600003,0.080004 -0.84,0.24 -0.234669,0.1546705 -0.352003,0.373337 -0.352,0.656 l -0.112,0 c -0.661335,3.3e-6 -1.250668,-0.2133298 -1.7679996,-0.64 -0.5600005,-0.4586622 -0.8400002,-1.0266617 -0.84,-1.704 -2e-7,-0.6506603 0.2826662,-1.2159931 0.848,-1.696 0.5066656,-0.4319922 1.0293316,-0.647992 1.5679996,-0.648 0.442664,8e-6 0.922664,0.1013413 1.44,0.304 0.549329,0.2240075 1.101329,0.4453406 1.656,0.664 0.213328,7.1e-6 0.378661,-0.079993 0.496,-0.24 0.122661,-0.1653259 0.215994,-0.2479925 0.28,-0.248 0.02666,7.5e-6 0.06399,0.021341 0.112,0.064 0.04799,0.042674 0.07199,0.096007 0.072,0.16 -6e-6,0.3626736 -0.194673,0.7386733 -0.584,1.128 -0.293339,0.2933392 -0.632005,0.4400058 -1.016,0.44 -0.320004,5.8e-6 -0.682671,-0.1119941 -1.088,-0.336 -0.400003,-0.229327 -0.784003,-0.4559935 -1.152,-0.68 -0.416002,-0.239993 -0.746668,-0.3599929 -0.992,-0.36 -0.256001,7.1e-6 -0.4826676,0.09334 -0.6799996,0.28 -0.192001,0.18134 -0.2880009,0.3733398 -0.288,0.576 -9e-7,0.3093393 0.1973323,0.629339 0.592,0.96 0.4213316,0.352005 0.8559976,0.5280048 1.3039996,0.528 l 1.04,0 c 0.08533,-0.1279951 0.24533,-0.2533283 0.48,-0.376 0.282663,-0.149328 0.557329,-0.2239946 0.824,-0.224 0.442662,5.4e-6 0.842661,0.1520052 1.2,0.456 0.26666,0.2240047 0.49066,0.5253377 0.672,0.904 0.143993,0.2933371 0.215993,0.5093369 0.216,0.648 l 0,0.448"
         style="font-size:8px;fill:#330080"
         id="path3006" />
    </g>
  </g>
</svg>
